<svg width="1234" height="419" viewBox="0 0 1234 419" fill="none" xmlns="http://www.w3.org/2000/svg">
<path d="M360.306 341.964H338.938V363.32H360.306V341.964Z" fill="#FF8D28"/>
<path d="M389.195 341.964H367.823V363.32H389.195V341.964Z" fill="#FF8D28"/>
<path d="M360.306 370.456H338.938V391.812H360.306V370.456Z" fill="#FF8D28"/>
<path d="M389.195 370.456H367.823V391.812H389.195V370.456Z" fill="#FF8D28"/>
<path d="M295.854 40.8697L274.041 0L59.1787 344.034H106.522L295.854 40.8697Z" fill="#FF8D28"/>
<path d="M326.218 97.7559L307.663 62.9796L127.094 344.034H167.993L326.218 97.7559Z" fill="#FF8D28"/>
<path d="M352.32 146.656L336.766 117.524L194.119 344.034H228.014L352.32 146.656Z" fill="#FF8D28"/>
<path d="M368.465 169.908L246.356 361.241H45.5214L0 418.605H277.796L366.315 279.913L447.555 418.605H514.049L368.465 169.908Z" fill="url(#paint0_linear_5_601)"/>
<path d="M533.349 230.302L606.891 63.7025H653.301L727.081 230.302H678.053L620.457 86.7885H639.021L581.425 230.302H533.349ZM573.571 197.934L585.709 163.186H667.105L679.243 197.934H573.571ZM866.822 233.634C854.129 233.634 842.784 231.651 832.788 227.684C822.792 223.559 814.859 217.926 808.988 210.786C803.276 203.646 800.42 195.634 800.42 186.748C800.42 178.022 802.324 170.247 806.132 163.424C810.099 156.602 816.128 150.334 824.22 144.622C832.471 138.91 842.943 133.436 855.636 128.2C864.045 124.551 870.63 121.298 875.39 118.442C880.15 115.586 883.482 112.889 885.386 110.35C887.449 107.653 888.48 104.956 888.48 102.258C888.48 98.9265 887.369 96.2292 885.148 94.1665C882.927 92.1038 879.595 91.0725 875.152 91.0725C870.551 91.0725 866.901 92.2625 864.204 94.6425C861.665 97.0225 860.396 99.9578 860.396 103.448C860.396 105.511 860.793 107.574 861.586 109.636C862.538 111.699 864.283 114.079 866.822 116.776C869.519 119.474 873.248 122.964 878.008 127.248L965.83 205.312L941.554 233.158L842.546 144.86C837.151 140.1 832.709 135.499 829.218 131.056C825.886 126.614 823.347 122.171 821.602 117.728C820.015 113.286 819.222 108.764 819.222 104.162C819.222 95.5945 821.523 88.1371 826.124 81.7905C830.725 75.2852 837.231 70.2872 845.64 66.7965C854.049 63.1471 863.887 61.3225 875.152 61.3225C885.465 61.3225 894.43 62.9091 902.046 66.0825C909.821 69.2558 915.85 73.8572 920.134 79.8865C924.418 85.9158 926.56 93.0558 926.56 101.306C926.56 108.605 924.656 115.269 920.848 121.298C917.199 127.328 911.487 132.881 903.712 137.958C896.096 143.036 886.338 148.034 874.438 152.952C867.139 155.967 861.269 158.982 856.826 161.996C852.542 165.011 849.448 168.105 847.544 171.278C845.64 174.293 844.688 177.784 844.688 181.75C844.688 184.924 845.719 187.859 847.782 190.556C849.845 193.254 852.78 195.396 856.588 196.982C860.396 198.41 864.918 199.124 870.154 199.124C879.357 199.124 887.845 196.903 895.62 192.46C903.395 187.859 910.059 181.195 915.612 172.468C921.324 163.742 925.211 153.19 927.274 140.814L963.688 151.762C960.197 168.105 953.851 182.385 944.648 194.602C935.604 206.82 924.418 216.419 911.09 223.4C897.921 230.223 883.165 233.634 866.822 233.634ZM1037.94 230.302L1111.48 63.7025H1157.89L1231.67 230.302H1182.64L1125.04 86.7885H1143.61L1086.01 230.302H1037.94ZM1078.16 197.934L1090.3 163.186H1171.69L1183.83 197.934H1078.16Z" fill="#1C1C1C"/>
<path d="M555.982 337.302V303.702H569.806C572.782 303.702 575.326 304.182 577.438 305.142C579.582 306.102 581.23 307.478 582.382 309.27C583.534 311.062 584.11 313.19 584.11 315.654C584.11 318.118 583.534 320.246 582.382 322.038C581.23 323.83 579.582 325.206 577.438 326.166C575.326 327.126 572.782 327.606 569.806 327.606H559.438L562.222 324.678V337.302H555.982ZM562.222 325.35L559.438 322.326H569.518C572.27 322.326 574.334 321.75 575.71 320.598C577.118 319.414 577.822 317.766 577.822 315.654C577.822 313.51 577.118 311.862 575.71 310.71C574.334 309.558 572.27 308.982 569.518 308.982H559.438L562.222 305.91V325.35ZM590.341 337.302V303.702H604.165C607.141 303.702 609.685 304.182 611.797 305.142C613.941 306.102 615.589 307.478 616.741 309.27C617.893 311.062 618.469 313.19 618.469 315.654C618.469 318.118 617.893 320.246 616.741 322.038C615.589 323.798 613.941 325.158 611.797 326.118C609.685 327.046 607.141 327.51 604.165 327.51H593.797L596.581 324.678V337.302H590.341ZM612.325 337.302L603.829 325.11H610.501L619.045 337.302H612.325ZM596.581 325.35L593.797 322.374H603.877C606.629 322.374 608.693 321.782 610.069 320.598C611.477 319.414 612.181 317.766 612.181 315.654C612.181 313.51 611.477 311.862 610.069 310.71C608.693 309.558 606.629 308.982 603.877 308.982H593.797L596.581 305.91V325.35ZM641.194 337.782C638.57 337.782 636.154 337.35 633.946 336.486C631.738 335.622 629.818 334.422 628.186 332.886C626.554 331.318 625.29 329.494 624.394 327.414C623.498 325.302 623.05 322.998 623.05 320.502C623.05 318.006 623.498 315.718 624.394 313.638C625.29 311.526 626.554 309.702 628.186 308.166C629.818 306.598 631.738 305.382 633.946 304.518C636.154 303.654 638.554 303.222 641.146 303.222C643.77 303.222 646.17 303.654 648.346 304.518C650.554 305.382 652.474 306.598 654.106 308.166C655.738 309.702 657.002 311.526 657.898 313.638C658.794 315.718 659.242 318.006 659.242 320.502C659.242 322.998 658.794 325.302 657.898 327.414C657.002 329.526 655.738 331.35 654.106 332.886C652.474 334.422 650.554 335.622 648.346 336.486C646.17 337.35 643.786 337.782 641.194 337.782ZM641.146 332.31C642.842 332.31 644.41 332.022 645.85 331.446C647.29 330.87 648.538 330.054 649.594 328.998C650.65 327.91 651.466 326.662 652.042 325.254C652.65 323.814 652.954 322.23 652.954 320.502C652.954 318.774 652.65 317.206 652.042 315.798C651.466 314.358 650.65 313.11 649.594 312.054C648.538 310.966 647.29 310.134 645.85 309.558C644.41 308.982 642.842 308.694 641.146 308.694C639.45 308.694 637.882 308.982 636.442 309.558C635.034 310.134 633.786 310.966 632.698 312.054C631.642 313.11 630.81 314.358 630.202 315.798C629.626 317.206 629.338 318.774 629.338 320.502C629.338 322.198 629.626 323.766 630.202 325.206C630.81 326.646 631.642 327.91 632.698 328.998C633.754 330.054 635.002 330.87 636.442 331.446C637.882 332.022 639.45 332.31 641.146 332.31ZM665.857 337.302V303.702H679.681C682.657 303.702 685.201 304.182 687.313 305.142C689.457 306.102 691.105 307.478 692.257 309.27C693.409 311.062 693.985 313.19 693.985 315.654C693.985 318.118 693.409 320.246 692.257 322.038C691.105 323.83 689.457 325.206 687.313 326.166C685.201 327.126 682.657 327.606 679.681 327.606H669.313L672.097 324.678V337.302H665.857ZM672.097 325.35L669.313 322.326H679.393C682.145 322.326 684.209 321.75 685.585 320.598C686.993 319.414 687.697 317.766 687.697 315.654C687.697 313.51 686.993 311.862 685.585 310.71C684.209 309.558 682.145 308.982 679.393 308.982H669.313L672.097 305.91V325.35ZM705.976 317.67H722.68V322.806H705.976V317.67ZM706.456 332.07H725.416V337.302H700.216V303.702H724.744V308.934H706.456V332.07ZM732.372 337.302V303.702H746.196C749.172 303.702 751.716 304.182 753.828 305.142C755.972 306.102 757.62 307.478 758.772 309.27C759.924 311.062 760.5 313.19 760.5 315.654C760.5 318.118 759.924 320.246 758.772 322.038C757.62 323.798 755.972 325.158 753.828 326.118C751.716 327.046 749.172 327.51 746.196 327.51H735.828L738.612 324.678V337.302H732.372ZM754.356 337.302L745.86 325.11H752.532L761.076 337.302H754.356ZM738.612 325.35L735.828 322.374H745.908C748.66 322.374 750.724 321.782 752.1 320.598C753.508 319.414 754.212 317.766 754.212 315.654C754.212 313.51 753.508 311.862 752.1 310.71C750.724 309.558 748.66 308.982 745.908 308.982H735.828L738.612 305.91V325.35ZM773.829 337.302V308.982H762.693V303.702H791.205V308.982H780.069V337.302H773.829ZM803.628 337.302V324.006L805.02 327.846L790.428 303.702H797.1L808.812 323.142H805.068L816.876 303.702H823.02L808.428 327.846L809.868 324.006V337.302H803.628ZM840.372 337.302V303.702H845.508L860.196 328.23H857.508L871.956 303.702H877.092L877.14 337.302H871.236L871.188 312.966H872.436L860.148 333.462H857.364L844.884 312.966H846.324V337.302H840.372ZM881.464 337.302L896.584 303.702H902.728L917.896 337.302H911.368L898.36 307.014H900.856L887.896 337.302H881.464ZM888.424 329.526L890.104 324.63H908.248L909.928 329.526H888.424ZM922.169 337.302V303.702H928.409V337.302H922.169ZM937.497 337.302V303.702H942.633L963.705 329.574H961.161V303.702H967.353V337.302H962.217L941.145 311.43H943.689V337.302H937.497ZM983.173 337.302V308.982H972.037V303.702H1000.55V308.982H989.413V337.302H983.173ZM1010.99 317.67H1027.7V322.806H1010.99V317.67ZM1011.47 332.07H1030.43V337.302H1005.23V303.702H1029.76V308.934H1011.47V332.07ZM1037.39 337.302V303.702H1042.52L1063.6 329.574H1061.05V303.702H1067.24V337.302H1062.11L1041.04 311.43H1043.58V337.302H1037.39ZM1071.5 337.302L1086.62 303.702H1092.76L1107.93 337.302H1101.4L1088.39 307.014H1090.89L1077.93 337.302H1071.5ZM1078.46 329.526L1080.14 324.63H1098.28L1099.96 329.526H1078.46ZM1112.2 337.302V303.702H1117.34L1138.41 329.574H1135.86V303.702H1142.06V337.302H1136.92L1115.85 311.43H1118.39V337.302H1112.2ZM1166.61 337.782C1164.05 337.782 1161.67 337.366 1159.46 336.534C1157.28 335.67 1155.38 334.47 1153.75 332.934C1152.15 331.366 1150.9 329.526 1150 327.414C1149.11 325.302 1148.66 322.998 1148.66 320.502C1148.66 318.006 1149.11 315.702 1150 313.59C1150.9 311.478 1152.16 309.654 1153.8 308.118C1155.43 306.55 1157.33 305.35 1159.51 304.518C1161.68 303.654 1164.07 303.222 1166.66 303.222C1169.41 303.222 1171.92 303.702 1174.2 304.662C1176.47 305.59 1178.39 306.982 1179.96 308.838L1175.92 312.63C1174.71 311.318 1173.35 310.342 1171.84 309.702C1170.34 309.03 1168.71 308.694 1166.95 308.694C1165.19 308.694 1163.57 308.982 1162.1 309.558C1160.66 310.134 1159.4 310.95 1158.31 312.006C1157.25 313.062 1156.42 314.31 1155.81 315.75C1155.24 317.19 1154.95 318.774 1154.95 320.502C1154.95 322.23 1155.24 323.814 1155.81 325.254C1156.42 326.694 1157.25 327.942 1158.31 328.998C1159.4 330.054 1160.66 330.87 1162.1 331.446C1163.57 332.022 1165.19 332.31 1166.95 332.31C1168.71 332.31 1170.34 331.99 1171.84 331.35C1173.35 330.678 1174.71 329.67 1175.92 328.326L1179.96 332.166C1178.39 333.99 1176.47 335.382 1174.2 336.342C1171.92 337.302 1169.4 337.782 1166.61 337.782ZM1191.69 317.67H1208.4V322.806H1191.69V317.67ZM1192.17 332.07H1211.13V337.302H1185.93V303.702H1210.46V308.934H1192.17V332.07Z" fill="#1C1C1C"/>
<path d="M766.089 398.382L765.753 390.99L783.369 372.702H790.377L775.737 388.254L772.281 392.046L766.089 398.382ZM760.521 406.302V372.702H766.761V406.302H760.521ZM783.945 406.302L771.081 390.99L775.209 386.43L791.241 406.302H783.945ZM801.25 386.67H817.954V391.806H801.25V386.67ZM801.73 401.07H820.69V406.302H795.49V372.702H820.018V377.934H801.73V401.07ZM827.646 406.302V372.702H832.782L853.854 398.574H851.31V372.702H857.502V406.302H852.366L831.294 380.43H833.838V406.302H827.646ZM873.321 406.302V377.982H862.185V372.702H890.697V377.982H879.561V406.302H873.321ZM908.646 406.302V372.702H914.886V401.022H932.454V406.302H908.646ZM941.056 406.302V377.982H929.92V372.702H958.432V377.982H947.296V406.302H941.056ZM963.115 406.302V372.702H977.803C981.451 372.702 984.651 373.406 987.403 374.814C990.155 376.222 992.299 378.174 993.835 380.67C995.371 383.166 996.139 386.11 996.139 389.502C996.139 392.862 995.371 395.806 993.835 398.334C992.299 400.83 990.155 402.782 987.403 404.19C984.651 405.598 981.451 406.302 977.803 406.302H963.115ZM969.355 401.022H977.515C980.043 401.022 982.219 400.542 984.043 399.582C985.899 398.622 987.323 397.278 988.315 395.55C989.339 393.822 989.851 391.806 989.851 389.502C989.851 387.166 989.339 385.15 988.315 383.454C987.323 381.726 985.899 380.382 984.043 379.422C982.219 378.462 980.043 377.982 977.515 377.982H969.355V401.022ZM1003.18 406.638C1002.09 406.638 1001.16 406.27 1000.39 405.534C999.625 404.766 999.241 403.806 999.241 402.654C999.241 401.438 999.625 400.478 1000.39 399.774C1001.16 399.038 1002.09 398.67 1003.18 398.67C1004.27 398.67 1005.19 399.038 1005.96 399.774C1006.73 400.478 1007.11 401.438 1007.11 402.654C1007.11 403.806 1006.73 404.766 1005.96 405.534C1005.19 406.27 1004.27 406.638 1003.18 406.638Z" fill="#1C1C1C"/>
<defs>
<linearGradient id="paint0_linear_5_601" x1="31.5" y1="170" x2="127.5" y2="498" gradientUnits="userSpaceOnUse">
<stop stop-color="#656565"/>
<stop offset="1" stop-color="#161616"/>
</linearGradient>
</defs>
</svg>